<?xml version="1.0" encoding="UTF-8" standalone="no"?>
<!-- Created with Inkscape (http://www.inkscape.org/) -->

<svg
   width="181.72197mm"
   height="29.524529mm"
   viewBox="0 0 181.72197 29.524529"
   version="1.1"
   id="svg1"
   sodipodi:docname="logo.svg"
   inkscape:version="1.3.2 (091e20e, 2023-11-25, custom)"
   xmlns:inkscape="http://www.inkscape.org/namespaces/inkscape"
   xmlns:sodipodi="http://sodipodi.sourceforge.net/DTD/sodipodi-0.dtd"
   xmlns="http://www.w3.org/2000/svg"
   xmlns:svg="http://www.w3.org/2000/svg">
  <sodipodi:namedview
     id="namedview1"
     pagecolor="#505050"
     bordercolor="#eeeeee"
     borderopacity="1"
     inkscape:showpageshadow="0"
     inkscape:pageopacity="0"
     inkscape:pagecheckerboard="0"
     inkscape:deskcolor="#505050"
     inkscape:document-units="mm"
     showgrid="false"
     inkscape:zoom="0.70866784"
     inkscape:cx="216.60359"
     inkscape:cy="147.45977"
     inkscape:window-width="2560"
     inkscape:window-height="1027"
     inkscape:window-x="-8"
     inkscape:window-y="-8"
     inkscape:window-maximized="1"
     inkscape:current-layer="layer1"
     showguides="true">
    <inkscape:grid
       id="grid1"
       units="mm"
       originx="-6.1634841e-07"
       originy="4.8857225e-07"
       spacingx="0.99999998"
       spacingy="1"
       empcolor="#0099e5"
       empopacity="0.30196078"
       color="#0099e5"
       opacity="0.14901961"
       empspacing="5"
       dotted="false"
       gridanglex="30"
       gridanglez="30"
       visible="false" />
  </sodipodi:namedview>
  <defs
     id="defs1" />
  <g
     inkscape:label="Camada 1"
     inkscape:groupmode="layer"
     id="layer1">
    <path
       style="font-weight:900;font-size:25.4px;font-family:Roboto;-inkscape-font-specification:'Roboto Heavy';display:inline;fill:#ffffff;stroke-width:0.264583"
       d="M 138.74784,24.16324 V 6.1054282 h 6.48642 q 3.48506,0 5.2958,1.2774414 1.82315,1.2774414 1.82315,3.7083004 0,1.401465 -0.64492,2.393653 -0.64493,0.992187 -1.89756,1.463476 1.41386,0.37207 2.17041,1.389063 0.75654,1.016992 0.75654,2.480468 0,2.654102 -1.68672,3.993555 -1.67431,1.327051 -4.97334,1.351855 z m 4.35322,-7.67705 v 4.328418 h 2.85254 q 1.17822,0 1.81074,-0.533301 0.63252,-0.545703 0.63252,-1.525488 0,-2.257227 -2.24482,-2.269629 z m 0,-2.852539 h 2.26963 q 1.42627,-0.0124 2.03398,-0.520899 0.60772,-0.508496 0.60772,-1.500683 0,-1.141016 -0.65733,-1.6371096 -0.65732,-0.5084961 -2.1208,-0.5084961 h -2.1332 z m 16.24707,10.529589 h -4.192 V 10.743905 h 4.192 z M 154.90809,7.2836508 q 0,-0.8929687 0.64492,-1.4634765 0.64492,-0.5705078 1.67431,-0.5705078 1.0294,0 1.67432,0.5705078 0.64492,0.5705078 0.64492,1.4634765 0,0.8929688 -0.64492,1.4634766 -0.64492,0.5705078 -1.67432,0.5705078 -1.02939,0 -1.67431,-0.5705078 -0.64492,-0.5705078 -0.64492,-1.4634766 z m 11.88144,0.1240235 v 3.3362307 h 2.20762 v 2.902148 h -2.20762 v 6.13916 q 0,0.756543 0.27285,1.054199 0.27286,0.297657 1.07901,0.297657 0.62012,0 1.0418,-0.07441 v 2.988964 q -1.12862,0.359668 -2.35645,0.359668 -2.15801,0 -3.1874,-1.016992 -1.0294,-1.016992 -1.0294,-3.088183 v -6.660059 h -1.71152 v -2.902148 h 1.71152 V 7.4076743 Z m 10.87686,12.9852537 q 0,-0.533301 -0.55811,-0.855762 -0.5581,-0.322461 -2.1208,-0.669726 -1.56269,-0.347266 -2.57968,-0.905371 -1.017,-0.570508 -1.5503,-1.37666 -0.5333,-0.806153 -0.5333,-1.84795 0,-1.847949 1.52549,-3.038574 1.52549,-1.203027 3.99356,-1.203027 2.6541,0 4.2664,1.203027 1.61231,1.203027 1.61231,3.162598 h -4.192 q 0,-1.612305 -1.69912,-1.612305 -0.65732,0 -1.10381,0.37207 -0.44648,0.359668 -0.44648,0.905371 0,0.558106 0.5457,0.905372 0.54571,0.347265 1.73633,0.570507 1.20303,0.223243 2.1084,0.533301 3.02617,1.041797 3.02617,3.733106 0,1.835546 -1.63711,2.988964 -1.6247,1.153418 -4.21679,1.153418 -1.72393,0 -3.07579,-0.620117 -1.35185,-0.620117 -2.10839,-1.686719 -0.75655,-1.066601 -0.75655,-2.244824 h 3.90674 q 0.0248,0.930176 0.62012,1.364258 0.59531,0.42168 1.52549,0.42168 0.85576,0 1.27744,-0.347266 0.43408,-0.347266 0.43408,-0.905371 z"
       id="path4"
       inkscape:label="bits"
       inkscape:export-filename="logo.svg"
       inkscape:export-xdpi="81.279922"
       inkscape:export-ydpi="81.279922" />
    <path
       d="m 47.950277,16.188534 h -7.577832 v 7.974706 h -2.38125 V 6.1054282 h 11.186914 v 1.9595703 h -8.805664 v 6.1763675 h 7.577832 z m 6.213574,7.974706 H 51.869417 V 10.743905 h 2.294434 z M 51.683382,7.1844321 q 0,-0.5581055 0.334863,-0.9425781 0.347266,-0.3844727 1.016992,-0.3844727 0.669727,0 1.016992,0.3844727 0.347266,0.3844726 0.347266,0.9425781 0,0.5581055 -0.347266,0.9301758 -0.347265,0.3720703 -1.016992,0.3720703 -0.669726,0 -1.016992,-0.3720703 -0.334863,-0.3720703 -0.334863,-0.9301758 z m 8.321972,3.5594729 0.07441,1.686718 q 1.537891,-1.934765 4.018359,-1.934765 4.254004,0 4.291211,4.799707 v 8.867675 h -2.294433 v -8.880078 q -0.0124,-1.451074 -0.669727,-2.145605 -0.644922,-0.694531 -2.021582,-0.694531 -1.116211,0 -1.95957,0.595312 -0.84336,0.595313 -1.314649,1.562696 V 24.16324 H 57.834944 V 10.743905 Z M 80.13436,24.16324 q -0.198438,-0.396875 -0.322461,-1.413867 -1.599903,1.661914 -3.819922,1.661914 -1.984375,0 -3.261817,-1.116211 -1.265039,-1.128613 -1.265039,-2.852539 0,-2.095996 1.5875,-3.249414 1.599903,-1.16582 4.489649,-1.16582 h 2.232422 v -1.054199 q 0,-1.203027 -0.719336,-1.909961 -0.719336,-0.719336 -2.120801,-0.719336 -1.227832,0 -2.058789,0.620117 -0.830957,0.620117 -0.830957,1.500684 h -2.306836 q 0,-1.00459 0.706934,-1.934766 0.719336,-0.942578 1.934765,-1.488281 1.227832,-0.545703 2.691309,-0.545703 2.319238,0 3.633886,1.16582 1.314649,1.153418 1.364258,3.187402 v 6.176368 q 0,1.847949 0.471289,2.939355 v 0.198437 z m -3.80752,-1.74873 q 1.079004,0 2.046387,-0.558105 0.967383,-0.558106 1.401465,-1.451075 v -2.75332 h -1.79834 q -4.216797,0 -4.216797,2.468066 0,1.079004 0.719336,1.686719 0.719336,0.607715 1.847949,0.607715 z m 11.509372,-11.670605 0.07441,1.686718 q 1.537891,-1.934765 4.018359,-1.934765 4.254004,0 4.291211,4.799707 v 8.867675 h -2.294433 v -8.880078 q -0.0124,-1.451074 -0.669727,-2.145605 -0.644922,-0.694531 -2.021582,-0.694531 -1.116211,0 -1.95957,0.595312 -0.843359,0.595313 -1.314648,1.562696 v 9.562206 h -2.29443 V 10.743905 Z m 17.226858,11.794628 q 1.22783,0 2.1456,-0.74414 0.91778,-0.744141 1.017,-1.860352 h 2.17041 q -0.062,1.153418 -0.79375,2.195215 -0.73174,1.041797 -1.95958,1.661914 -1.21542,0.620117 -2.57968,0.620117 -2.74092,0 -4.36563,-1.823144 -1.612302,-1.835547 -1.612302,-5.010547 v -0.384473 q 0,-1.95957 0.719336,-3.485058 0.719336,-1.525488 2.058786,-2.368848 1.35186,-0.843359 3.18741,-0.843359 2.25722,0 3.7455,1.351855 1.50069,1.351856 1.59991,3.509864 h -2.17041 q -0.0992,-1.302247 -0.99219,-2.133204 -0.88057,-0.843359 -2.18281,-0.843359 -1.74874,0 -2.71612,1.265039 -0.95498,1.252637 -0.95498,3.633887 v 0.434082 q 0,2.319238 0.95498,3.571875 0.95498,1.252636 2.72852,1.252636 z m 10.40557,1.624707 H 113.1742 V 10.743905 h 2.29444 z M 112.98817,7.1844321 q 0,-0.5581055 0.33486,-0.9425781 0.34727,-0.3844727 1.01699,-0.3844727 0.66973,0 1.017,0.3844727 0.34726,0.3844726 0.34726,0.9425781 0,0.5581055 -0.34726,0.9301758 -0.34727,0.3720703 -1.017,0.3720703 -0.66972,0 -1.01699,-0.3720703 -0.33486,-0.3720703 -0.33486,-0.9301758 z M 127.42449,24.16324 q -0.19843,-0.396875 -0.32246,-1.413867 -1.5999,1.661914 -3.81992,1.661914 -1.98437,0 -3.26182,-1.116211 -1.26503,-1.128613 -1.26503,-2.852539 0,-2.095996 1.5875,-3.249414 1.5999,-1.16582 4.48964,-1.16582 h 2.23243 v -1.054199 q 0,-1.203027 -0.71934,-1.909961 -0.71934,-0.719336 -2.1208,-0.719336 -1.22783,0 -2.05879,0.620117 -0.83096,0.620117 -0.83096,1.500684 h -2.30683 q 0,-1.00459 0.70693,-1.934766 0.71934,-0.942578 1.93477,-1.488281 1.22783,-0.545703 2.69131,-0.545703 2.31923,0 3.63388,1.16582 1.31465,1.153418 1.36426,3.187402 v 6.176368 q 0,1.847949 0.47129,2.939355 v 0.198437 z m -3.80752,-1.74873 q 1.07901,0 2.04639,-0.558105 0.96738,-0.558106 1.40147,-1.451075 v -2.75332 h -1.79834 q -4.2168,0 -4.2168,2.468066 0,1.079004 0.71934,1.686719 0.71933,0.607715 1.84794,0.607715 z m 11.83184,1.74873 h -2.29444 V 5.1132407 h 2.29444 z"
       id="path3"
       style="font-size:25.4px;font-family:Roboto;-inkscape-font-specification:Roboto;display:inline;fill:#ffffff;stroke-width:0.264583"
       inkscape:label="financial" />
    <path
       d="M 14.762265,-4.8857224e-7 A 14.76225,14.76225 0 0 1 6.1634844e-7,14.762264 14.76225,14.76225 0 0 1 14.762265,29.524529 14.76225,14.76225 0 0 1 29.52453,14.762264 14.76225,14.76225 0 0 1 14.762265,-4.8857224e-7 Z"
       style="display:inline;fill:#ffffff;fill-opacity:1;stroke-width:0.108982"
       id="path2"
       inkscape:export-filename="logo.svg"
       inkscape:export-xdpi="81.279922"
       inkscape:export-ydpi="81.279922"
       inkscape:label="icon" />
  </g>
</svg>
